<svg width="25" height="25" viewBox="0 0 25 25" fill="none" xmlns="http://www.w3.org/2000/svg">
<path d="M0.5 12.3806C0.5 5.75322 5.8726 0.380615 12.5 0.380615C19.1274 0.380615 24.5 5.75322 24.5 12.3806C24.5 19.008 19.1274 24.3806 12.5 24.3806C5.8726 24.3806 0.5 19.008 0.5 12.3806Z" fill="#333333"/>
<path d="M10.1 19.5806C11.4255 19.5806 12.5 18.5061 12.5 17.1806V14.7806H10.1C8.77453 14.7806 7.70001 15.8551 7.70001 17.1806C7.70001 18.5061 8.77453 19.5806 10.1 19.5806Z" fill="#0ACF83"/>
<path d="M7.70001 12.3806C7.70001 11.0551 8.77453 9.98059 10.1 9.98059H12.5V14.7806H10.1C8.77453 14.7806 7.70001 13.7061 7.70001 12.3806Z" fill="#A259FF"/>
<path d="M7.70001 7.5806C7.70001 6.25512 8.77453 5.1806 10.1 5.1806H12.5V9.9806H10.1C8.77453 9.9806 7.70001 8.90609 7.70001 7.5806Z" fill="#F24E1E"/>
<path d="M12.5 5.1806H14.9C16.2255 5.1806 17.3 6.25512 17.3 7.5806C17.3 8.90609 16.2255 9.9806 14.9 9.9806H12.5V5.1806Z" fill="#FF7262"/>
<path d="M17.3 12.3806C17.3 13.7061 16.2255 14.7806 14.9 14.7806C13.5745 14.7806 12.5 13.7061 12.5 12.3806C12.5 11.0551 13.5745 9.98059 14.9 9.98059C16.2255 9.98059 17.3 11.0551 17.3 12.3806Z" fill="#1ABCFE"/>
</svg>
