<svg width="25" height="25" viewBox="0 0 25 25" fill="none" xmlns="http://www.w3.org/2000/svg">
<path d="M8.9 17.3806L12.5 13.7806L16.1 17.3806L17.5 15.9806L13.9 12.3806L17.5 8.78062L16.1 7.38062L12.5 10.9806L8.9 7.38062L7.5 8.78062L11.1 12.3806L7.5 15.9806L8.9 17.3806ZM12.5 22.3806C11.1167 22.3806 9.81667 22.1181 8.6 21.5931C7.38333 21.0681 6.325 20.3556 5.425 19.4556C4.525 18.5556 3.8125 17.4973 3.2875 16.2806C2.7625 15.0639 2.5 13.7639 2.5 12.3806C2.5 10.9973 2.7625 9.69728 3.2875 8.48062C3.8125 7.26395 4.525 6.20562 5.425 5.30562C6.325 4.40562 7.38333 3.69312 8.6 3.16812C9.81667 2.64312 11.1167 2.38062 12.5 2.38062C13.8833 2.38062 15.1833 2.64312 16.4 3.16812C17.6167 3.69312 18.675 4.40562 19.575 5.30562C20.475 6.20562 21.1875 7.26395 21.7125 8.48062C22.2375 9.69728 22.5 10.9973 22.5 12.3806C22.5 13.7639 22.2375 15.0639 21.7125 16.2806C21.1875 17.4973 20.475 18.5556 19.575 19.4556C18.675 20.3556 17.6167 21.0681 16.4 21.5931C15.1833 22.1181 13.8833 22.3806 12.5 22.3806ZM12.5 20.3806C14.7333 20.3806 16.625 19.6056 18.175 18.0556C19.725 16.5056 20.5 14.6139 20.5 12.3806C20.5 10.1473 19.725 8.25562 18.175 6.70562C16.625 5.15562 14.7333 4.38062 12.5 4.38062C10.2667 4.38062 8.375 5.15562 6.825 6.70562C5.275 8.25562 4.5 10.1473 4.5 12.3806C4.5 14.6139 5.275 16.5056 6.825 18.0556C8.375 19.6056 10.2667 20.3806 12.5 20.3806Z" fill="#404040"/>
</svg>
