<svg width="130" height="124" viewBox="0 0 130 124" fill="none" xmlns="http://www.w3.org/2000/svg">
<g clip-path="url(#clip0_81_401)">
<path d="M130 0.130615H0V123.131H130V0.130615Z" fill="white"/>
<path d="M27.0583 85.647V84.7281H35.6942V85.647H31.867V92.899H30.8959V85.647H27.0583ZM38.0095 84.7281H43.7659C44.1663 84.7281 44.5065 84.8606 44.7864 85.1254C45.0664 85.3903 45.2063 85.7117 45.2063 86.0898V91.5374C45.2063 91.9154 45.0664 92.2369 44.7864 92.5017C44.5065 92.7666 44.1663 92.899 43.7659 92.899H38.0095C37.6091 92.899 37.269 92.7666 36.989 92.5017C36.7091 92.2369 36.5691 91.9154 36.5691 91.5374V86.0898C36.5691 85.7117 36.7091 85.3903 36.989 85.1254C37.269 84.8606 37.6091 84.7281 38.0095 84.7281ZM38.0095 91.9802H43.7659C43.8942 91.9802 44.0043 91.9368 44.0961 91.8498C44.188 91.7621 44.2339 91.658 44.2339 91.5374V86.0898C44.2339 85.9684 44.188 85.8643 44.0961 85.7773C44.0043 85.6904 43.8942 85.647 43.7659 85.647H38.0095C37.8813 85.647 37.7712 85.6904 37.6793 85.7773C37.5875 85.8643 37.5415 85.9684 37.5415 86.0898V91.5374C37.5415 91.658 37.5875 91.7621 37.6793 91.8498C37.7712 91.9368 37.8813 91.9802 38.0095 91.9802ZM46.5258 92.899V84.7392H53.7226C54.1222 84.7392 54.4619 84.8716 54.7418 85.1365C55.0218 85.4014 55.1617 85.7228 55.1617 86.1008V88.4956C55.1617 88.8737 55.0218 89.1951 54.7418 89.46C54.4619 89.7248 54.1222 89.8572 53.7226 89.8572H47.9649C47.893 89.8572 47.737 89.8421 47.4969 89.8117V92.899H46.5258ZM54.1893 88.4956V86.1008C54.1893 85.9803 54.1434 85.8761 54.0515 85.7884C53.9597 85.7015 53.85 85.658 53.7226 85.658H47.9649C47.8367 85.658 47.7266 85.7015 47.6347 85.7884C47.5429 85.8761 47.4969 85.9803 47.4969 86.1008V88.4956C47.4969 88.617 47.5429 88.7191 47.6347 88.8019C47.7266 88.8855 47.8367 88.9274 47.9649 88.9274H53.7226C53.85 88.9274 53.9597 88.8855 54.0515 88.8019C54.1434 88.7191 54.1893 88.617 54.1893 88.4956ZM64.6257 84.7281V85.647H57.4523C57.3249 85.647 57.2149 85.6904 57.1221 85.7773C57.0303 85.8643 56.9843 85.9684 56.9843 86.0898V91.5374C56.9843 91.658 57.0303 91.7621 57.1221 91.8498C57.2149 91.9368 57.3249 91.9802 57.4523 91.9802H64.6257V92.899H57.4523C57.0528 92.899 56.7131 92.7666 56.4331 92.5017C56.1532 92.2369 56.0132 91.9154 56.0132 91.5374V86.0898C56.0132 85.7117 56.1532 85.3903 56.4331 85.1254C56.7131 84.8606 57.0528 84.7281 57.4523 84.7281H64.6257ZM67.2881 84.7281H73.0458C73.4454 84.7281 73.7851 84.8606 74.065 85.1254C74.345 85.3903 74.4849 85.7117 74.4849 86.0898V91.5374C74.4849 91.9154 74.345 92.2369 74.065 92.5017C73.7851 92.7666 73.4454 92.899 73.0458 92.899H67.2881C66.8886 92.899 66.5489 92.7666 66.2689 92.5017C65.989 92.2369 65.849 91.9154 65.849 91.5374V86.0898C65.849 85.7117 65.989 85.3903 66.2689 85.1254C66.5489 84.8606 66.8886 84.7281 67.2881 84.7281ZM67.2881 91.9802H73.0458C73.1741 91.9802 73.2842 91.9368 73.376 91.8498C73.4679 91.7621 73.5138 91.658 73.5138 91.5374V86.0898C73.5138 85.9684 73.4679 85.8643 73.376 85.7773C73.2842 85.6904 73.1741 85.647 73.0458 85.647H67.2881C67.1599 85.647 67.0498 85.6904 66.9579 85.7773C66.8661 85.8643 66.8201 85.9684 66.8201 86.0898V91.5374C66.8201 91.658 66.8661 91.7621 66.9579 91.8498C67.0498 91.9368 67.1599 91.9802 67.2881 91.9802ZM75.8291 92.899V84.7281H83.0259C83.4255 84.7281 83.7652 84.8606 84.0451 85.1254C84.3251 85.3903 84.465 85.7117 84.465 86.0898V91.5374C84.465 91.9154 84.3251 92.2369 84.0451 92.5017C83.7652 92.7666 83.4255 92.899 83.0259 92.899H75.8291ZM83.4926 91.5374V86.0898C83.4926 85.9684 83.4467 85.8643 83.3548 85.7773C83.263 85.6904 83.1533 85.647 83.0259 85.647H77.2682C77.14 85.647 77.0299 85.6904 76.938 85.7773C76.8462 85.8643 76.8002 85.9684 76.8002 86.0898V91.5374C76.8002 91.658 76.8462 91.7621 76.938 91.8498C77.0299 91.9368 77.14 91.9802 77.2682 91.9802H83.0259C83.1533 91.9802 83.263 91.9368 83.3548 91.8498C83.4467 91.7621 83.4926 91.658 83.4926 91.5374ZM85.8326 84.7281H93.7132V85.647H86.8037V88.348H92.3573V89.2791H86.8037V91.9802H93.7132V92.899H85.8326V84.7281ZM103.621 86.1008V88.4956C103.621 88.8737 103.481 89.1951 103.201 89.46C102.921 89.7248 102.581 89.8572 102.181 89.8572H100.862L103.572 92.899H102.289L99.5905 89.8572H96.4238C96.3518 89.8572 96.1958 89.8421 95.9557 89.8117V92.899H94.9846V84.7392H102.181C102.581 84.7392 102.921 84.8716 103.201 85.1365C103.481 85.4014 103.621 85.7228 103.621 86.1008ZM96.4238 88.9274H102.181C102.309 88.9274 102.417 88.8855 102.505 88.8019C102.593 88.7191 102.636 88.617 102.636 88.4956V86.1008C102.636 85.9803 102.593 85.8761 102.505 85.7884C102.417 85.7015 102.309 85.658 102.181 85.658H96.4238C96.2955 85.658 96.1854 85.7015 96.0936 85.7884C96.0017 85.8761 95.9557 85.9803 95.9557 86.1008V88.4956C95.9557 88.617 96.0017 88.7191 96.0936 88.8019C96.1854 88.8855 96.2955 88.9274 96.4238 88.9274Z" fill="#3E485B"/>
<path d="M23.3533 106.512V98.3408H31.2339V99.2596H24.3257V101.961H29.8793V102.892H24.3257V106.512H23.3533ZM39.6423 105.15V98.3408H40.6134V105.15C40.6134 105.528 40.4739 105.85 40.1948 106.114C39.9149 106.379 39.5747 106.512 39.1743 106.512H33.4166C33.0171 106.512 32.6774 106.379 32.3974 106.114C32.1175 105.85 31.9775 105.528 31.9775 105.15V98.3408H32.9499V105.15C32.9499 105.271 32.9959 105.375 33.0877 105.462C33.1796 105.549 33.2892 105.593 33.4166 105.593H39.1743C39.3026 105.593 39.4127 105.549 39.5045 105.462C39.5964 105.375 39.6423 105.271 39.6423 105.15ZM50.5818 106.512H41.9459V98.3285H42.917V105.593H50.5818V106.512ZM59.9262 106.512H51.289V98.3285H52.2614V105.593H59.9262V106.512ZM69.1978 99.7024V100.02H68.2254V99.7024C68.2254 99.581 68.1795 99.4769 68.0876 99.39C67.9958 99.3031 67.8861 99.2596 67.7587 99.2596H62.001C61.8728 99.2596 61.7627 99.3031 61.6708 99.39C61.579 99.4769 61.533 99.581 61.533 99.7024V101.529C61.533 101.65 61.579 101.753 61.6708 101.836C61.7627 101.919 61.8728 101.961 62.001 101.961H67.7587C68.1583 101.961 68.498 102.093 68.7779 102.358C69.0579 102.623 69.1978 102.944 69.1978 103.322V105.15C69.1978 105.528 69.0579 105.85 68.7779 106.114C68.498 106.379 68.1583 106.512 67.7587 106.512H62.001C61.6006 106.512 61.2609 106.379 60.9818 106.114C60.7019 105.85 60.5619 105.528 60.5619 105.15V104.832H61.533V105.15C61.533 105.271 61.579 105.375 61.6708 105.462C61.7627 105.549 61.8728 105.593 62.001 105.593H67.7587C67.8861 105.593 67.9958 105.549 68.0876 105.462C68.1795 105.375 68.2254 105.271 68.2254 105.15V103.322C68.2254 103.202 68.1795 103.1 68.0876 103.016C67.9958 102.933 67.8861 102.892 67.7587 102.892H62.001C61.6006 102.892 61.2609 102.759 60.9818 102.495C60.7019 102.23 60.5619 101.908 60.5619 101.529V99.7024C60.5619 99.3244 60.7019 99.0029 60.9818 98.7381C61.2609 98.4732 61.6006 98.3408 62.001 98.3408H67.7587C68.1583 98.3408 68.498 98.4732 68.7779 98.7381C69.0579 99.0029 69.1978 99.3244 69.1978 99.7024ZM70.0493 99.2596V98.3408H78.6852V99.2596H74.8593V106.512H73.8882V99.2596H70.0493ZM81.0486 98.3408H86.8063C87.2059 98.3408 87.5456 98.4732 87.8255 98.7381C88.1055 99.0029 88.2454 99.3244 88.2454 99.7024V106.512H87.2743V103.526H80.5806V106.512H79.6095V99.7024C79.6095 99.3244 79.7495 99.0029 80.0294 98.7381C80.3094 98.4732 80.6491 98.3408 81.0486 98.3408ZM80.5806 99.7024V102.608H87.2743V99.7024C87.2743 99.581 87.228 99.4769 87.1352 99.39C87.0434 99.3031 86.9337 99.2596 86.8063 99.2596H81.0486C80.9204 99.2596 80.8103 99.3031 80.7184 99.39C80.6266 99.4769 80.5806 99.581 80.5806 99.7024ZM98.2255 98.3408V99.2596H91.0521C90.9239 99.2596 90.8138 99.3031 90.7219 99.39C90.6301 99.4769 90.5841 99.581 90.5841 99.7024V105.15C90.5841 105.271 90.6301 105.375 90.7219 105.462C90.8138 105.549 90.9239 105.593 91.0521 105.593H98.2255V106.512H91.0521C90.6526 106.512 90.3129 106.379 90.0329 106.114C89.753 105.85 89.613 105.528 89.613 105.15V99.7024C89.613 99.3244 89.753 99.0029 90.0329 98.7381C90.3129 98.4732 90.6526 98.3408 91.0521 98.3408H98.2255ZM103.251 101.961L106.465 98.3408H107.713L104.103 102.426L107.725 106.512H106.465L103.251 102.892H100.468V106.512H99.4839V98.3408H100.468V101.961H103.251Z" fill="#3E485B"/>
<path d="M58.233 71.6026C54.201 75.451 47.6376 75.4789 43.5729 71.6665L35.8677 64.4395C34.0742 60.1861 33.162 55.6854 36.1786 52.4253L39.3575 49.5049C41.0739 47.5062 42.5006 45.2195 44.0181 44.3765L44.5219 44.9212L58.1772 57.7275C62.2411 61.5406 62.2682 67.7513 58.233 71.6026Z" fill="url(#paint0_linear_81_401)"/>
<path d="M58.0774 32.2257L44.6481 45.0432C44.6402 45.0439 44.6402 45.0439 44.637 45.047L43.8881 45.7474L36.154 37.9632C32.8572 34.6835 33.769 28.0213 35.7705 25.6893L35.915 25.5072L43.3511 18.4133C47.3856 14.5626 53.949 14.5341 58.0169 18.3495C62.0808 22.1612 62.1079 28.3713 58.0774 32.2257Z" fill="url(#paint1_linear_81_401)"/>
<path d="M44.6513 45.0436L44.6835 45.0738L44.6513 45.0436L44.6872 45.0093L44.6513 45.0436Z" fill="url(#paint2_linear_81_401)"/>
<path d="M36.0038 64.5638L35.9139 64.4795C34.1206 60.2264 33.772 55.7986 36.7885 52.5387L39.719 49.7417C41.4354 47.7431 43.1234 45.8871 44.6412 45.0438L44.6483 45.037L36.7529 37.6316C33.456 34.3518 33.772 28.018 35.7739 25.6856L36.0092 25.4611L36.0236 25.4746C35.9737 25.5222 35.9238 25.5834 35.8704 25.6412C35.8522 25.6653 35.8312 25.6922 35.8134 25.7159C34.8128 26.8818 34.2459 29.021 34.3274 31.303C34.384 32.7928 34.7756 35.5949 36.7922 37.601L44.6875 45.0063L44.6519 45.0403L44.6842 45.0707L44.6657 45.0884C43.1061 45.9512 41.3182 47.9569 39.7578 49.7727L36.8245 52.5724C33.4905 56.176 34.5134 61.0279 35.9604 64.4617L36.0038 64.5638Z" fill="url(#paint3_linear_81_401)"/>
<path d="M36.7889 52.539L44.6412 45.0444L44.6486 45.0373L36.7533 37.632C33.457 34.3514 33.773 28.0177 35.7743 25.686L36.0095 25.4614L35.988 25.4412L21.1646 39.7117C18.9905 41.7868 18.3133 44.7317 19.1113 47.3499C19.4995 48.5368 20.1844 49.6581 21.1834 50.5951L28.8777 57.8456L35.3601 63.9608L35.9136 64.4798C34.1198 60.227 33.7713 55.7992 36.7889 52.539Z" fill="url(#paint4_linear_81_401)"/>
<path d="M72.1419 71.6839C76.2157 75.487 82.7782 75.4424 86.8 71.5858L94.4241 64.2749C96.1702 60.0025 97.0326 55.4925 93.9805 52.2663L90.7699 49.3815C89.0317 47.4021 87.58 45.1316 86.0534 44.3055L85.5557 44.8556L72.0444 57.8106C68.0233 61.6679 68.0648 67.8777 72.1419 71.6839Z" fill="url(#paint5_linear_81_401)"/>
<path d="M71.8393 32.3093L85.4109 44.9792C85.4188 44.9798 85.4188 44.9798 85.422 44.9828L86.1787 45.675L93.8272 37.8049C97.088 34.4885 96.1025 27.8361 94.0751 25.5261L93.9285 25.3456L86.4137 18.3334C82.3365 14.5271 75.7723 14.571 71.7464 18.4316C67.7244 22.2884 67.7659 28.4992 71.8393 32.3093Z" fill="url(#paint6_linear_81_401)"/>
<path d="M85.4175 44.9791L85.3856 45.0097L85.4175 44.9791L85.3812 44.9453L85.4175 44.9791Z" fill="url(#paint7_linear_81_401)"/>
<path d="M94.2801 64.4077L94.369 64.3224C96.1153 60.0497 96.4149 55.6183 93.3625 52.3919L90.4013 49.6275C88.6629 47.648 86.9545 45.8108 85.4275 44.9842L85.4203 44.9775L93.2334 37.4854C96.4939 34.1693 96.108 27.8394 94.0804 25.5293L93.8427 25.3074L93.8284 25.321C93.8788 25.3681 93.9294 25.4287 93.9834 25.4859C94.0018 25.5098 94.0231 25.5364 94.0412 25.56C95.0546 26.7148 95.6451 28.8476 95.5888 31.1304C95.5487 32.6206 95.1881 35.427 93.1938 37.4552L85.3808 44.9473L85.4168 44.9809L85.3848 45.0116L85.4035 45.0291C86.9725 45.8747 88.7825 47.8605 90.3629 49.6589L93.327 52.426C96.7005 55.9927 95.7313 60.8555 94.3224 64.3051L94.2801 64.4077Z" fill="url(#paint8_linear_81_401)"/>
<path d="M93.3621 52.3923L85.4275 44.9849L85.4199 44.9778L93.233 37.4857C96.4928 34.169 96.1069 27.8391 94.08 25.5296L93.8422 25.3077L93.8636 25.2872L108.844 39.3931C111.041 41.444 111.75 44.3814 110.981 47.0082C110.606 48.1993 109.934 49.3281 108.945 50.2761L101.332 57.6112L94.917 63.7976L94.3693 64.3228C96.1159 60.0504 96.4156 55.619 93.3621 52.3923Z" fill="url(#paint9_linear_81_401)"/>
</g>
<defs>
<linearGradient id="paint0_linear_81_401" x1="73.4361" y1="-1450.05" x2="2152.66" y2="-1459.11" gradientUnits="userSpaceOnUse">
<stop stop-color="#9598EF"/>
<stop offset="1" stop-color="#6366F2"/>
</linearGradient>
<linearGradient id="paint1_linear_81_401" x1="46.1293" y1="-969.295" x2="3096.54" y2="-982.581" gradientUnits="userSpaceOnUse">
<stop stop-color="#6366F2"/>
<stop offset="1" stop-color="#05ACF1"/>
</linearGradient>
<linearGradient id="paint2_linear_81_401" x1="79.9758" y1="-10.2934" x2="85.0764" y2="-10.3155" gradientUnits="userSpaceOnUse">
<stop stop-color="#6366F2"/>
<stop offset="1" stop-color="#05ACF1"/>
</linearGradient>
<linearGradient id="paint3_linear_81_401" x1="65.2431" y1="-1364.69" x2="2999.94" y2="-1377.47" gradientUnits="userSpaceOnUse">
<stop stop-color="#6366F2"/>
<stop offset="1" stop-color="#05ACF1"/>
</linearGradient>
<linearGradient id="paint4_linear_81_401" x1="65.2631" y1="-1360.09" x2="3000.01" y2="-1372.87" gradientUnits="userSpaceOnUse">
<stop stop-color="#6366F2"/>
<stop offset="1" stop-color="#05ACF1"/>
</linearGradient>
<linearGradient id="paint5_linear_81_401" x1="67.0927" y1="-1449.97" x2="-2011.72" y2="-1474.4" gradientUnits="userSpaceOnUse">
<stop stop-color="#0FB9D7"/>
<stop offset="0.757143" stop-color="#9ECE6B"/>
</linearGradient>
<linearGradient id="paint6_linear_81_401" x1="-952.955" y1="-84.1153" x2="-1219.52" y2="2791.75" gradientUnits="userSpaceOnUse">
<stop stop-color="#00EFC8"/>
<stop offset="1" stop-color="#2C94EA"/>
</linearGradient>
<linearGradient id="paint7_linear_81_401" x1="53.3001" y1="37.0627" x2="52.8544" y2="41.871" gradientUnits="userSpaceOnUse">
<stop stop-color="#00EFC8"/>
<stop offset="1" stop-color="#2C94EA"/>
</linearGradient>
<linearGradient id="paint8_linear_81_401" x1="-1370.66" y1="-103.021" x2="-1627.08" y2="2663.42" gradientUnits="userSpaceOnUse">
<stop stop-color="#00EFC8"/>
<stop offset="1" stop-color="#2C94EA"/>
</linearGradient>
<linearGradient id="paint9_linear_81_401" x1="-1365.82" y1="-102.572" x2="-1622.25" y2="2663.92" gradientUnits="userSpaceOnUse">
<stop stop-color="#00EFC8"/>
<stop offset="1" stop-color="#2C94EA"/>
</linearGradient>
<clipPath id="clip0_81_401">
<rect width="130" height="123" fill="white" transform="translate(0 0.130615)"/>
</clipPath>
</defs>
</svg>
